<svg width="319" height="158" xmlns="http://www.w3.org/2000/svg" xmlns:xlink="http://www.w3.org/1999/xlink" overflow="hidden"><defs><clipPath id="clip0"><path d="M145 165 464 165 464 323 145 323Z" fill-rule="evenodd" clip-rule="evenodd"/></clipPath></defs><g clip-path="url(#clip0)" transform="translate(-145 -165)"><path d="M12.667 0 91 0 91 63.333C91 70.3288 85.3288 76 78.333 76L0 76 0 12.667C-2.89638e-15 5.67119 5.67119 0 12.667-1.44819e-15Z" stroke="#193F54" stroke-width="19" stroke-linecap="round" stroke-miterlimit="8" fill="#FFFFFF" fill-rule="evenodd" transform="matrix(-1 -8.74228e-08 -8.74228e-08 1 334.5 175.5)"/><path d="M370.667 175 453 175 453 238.333C453 245.329 447.329 251 440.333 251L358 251 358 187.667C358 180.671 363.671 175 370.667 175Z" stroke="#193F54" stroke-width="20" stroke-linecap="round" stroke-miterlimit="8" fill="#FFFFFF" fill-rule="evenodd"/><path d="M163.635 286.555 205.545 292.178C211.036 292.914 214.778 298.794 213.903 305.311 213.029 311.828 207.869 316.514 202.379 315.777L160.469 310.154C154.978 309.417 151.236 303.537 152.111 297.02 152.985 290.504 158.145 285.818 163.635 286.555Z" stroke="#FE6900" stroke-width="12" stroke-linecap="round" stroke-miterlimit="8" fill="#FFFFFF" fill-rule="evenodd"/><path d="M221.072 196.925 231.909 244.409C233.328 250.63 227.055 257.367 217.898 259.457 208.74 261.547 200.165 258.198 198.746 251.978L187.909 204.493C186.489 198.273 192.762 191.536 201.92 189.446 211.078 187.356 219.652 190.705 221.072 196.925Z" stroke="#FE6900" stroke-width="13.3333" stroke-linecap="round" stroke-miterlimit="8" fill="#FFFFFF" fill-rule="evenodd"/><path d="M166.047 259.745 216.269 269.642C222.849 270.938 227.071 277.629 225.7 284.587 224.329 291.545 217.884 296.135 211.304 294.838L161.082 284.942C154.503 283.645 150.281 276.954 151.652 269.996 153.023 263.038 159.468 258.449 166.047 259.745Z" stroke="#FE6900" stroke-width="12" stroke-linecap="round" stroke-miterlimit="8" fill="#FFFFFF" fill-rule="evenodd"/><path d="M169.77 233.185 219.993 243.082C226.572 244.378 230.794 251.069 229.423 258.027 228.052 264.985 221.607 269.575 215.028 268.278L164.805 258.382C158.226 257.085 154.004 250.394 155.375 243.436 156.746 236.478 163.191 231.889 169.77 233.185Z" stroke="#FE6900" stroke-width="12" stroke-linecap="round" stroke-miterlimit="8" fill="#FFFFFF" fill-rule="evenodd"/><path d="M255.5 208.5 358.5 208.5 412.5 262.5 358.5 316.5 255.5 316.5 309.5 262.5Z" stroke="#FFFFFF" stroke-width="13" stroke-miterlimit="8" fill="#FF6900" fill-rule="evenodd"/><rect x="235" y="198" width="18" height="18" fill="#193F54"/></g></svg>